<svg xmlns="http://www.w3.org/2000/svg" width="1440" height="185" xmlns:xlink="http://www.w3.org/1999/xlink"><defs><path id="a" d="M87.127 8.1375V39H0V.12h87.127v8.0175H8.7774v30.8624309h78.35V8.1375z"/><path id="c" d="M87.127.4615v15.5381442H.0002V.4615z"/><path id="e" d="M63.5972982 27.8H.6744258V.10784h62.9228724z"/><path id="g" d="M10.3937778.0236v10.5276H.95492222V.0236h9.43885558z"/><path id="i" d="M10.3937778.0236v10.5276H.95492222V.0236h9.43885558z"/><path id="k" d="M30.226963.79998333V13.45715H.83896038V.79998333H30.226963z"/><path id="m" d="M72.049 7.4783V33H0V.848h72.049v6.6303H7.2587v25.5217457h64.791V7.4783z"/><path id="o" d="M17.049.793v22.622H.2714V.793H17.049z"/><path id="q" d="M72.049.1504v12.8490984H.0003V.1504H72.049z"/></defs><g fill="none" fill-rule="evenodd"><path fill="#AD59C7" d="M259.9558 103.6015s.323-5.803-2.053-10.477c-.687-1.353-2.101-2.182-3.618-2.121-4.487.178-14.761 1.513-22.789 9.528-.517.516-.577 1.334-.139 1.919.981 1.307 2.32 3.928.871 7.325l27.728-6.174z"/><g fill="#000"><path d="M255.2493 93.4742s.121.12.301.359c.168.243.427.588.664 1.043.241.451.491.998.689 1.608.218.605.361 1.276.486 1.948.1.678.157 1.36.157 2-.011.64-.046 1.236-.134 1.74-.057.506-.189.916-.253 1.204-.074.287-.128.448-.128.448s-.018-.171-.031-.466c-.007-.294-.024-.712-.06-1.209-.018-.497-.073-1.071-.117-1.683-.069-.611-.134-1.26-.246-1.903-.205-1.288-.511-2.559-.798-3.507-.275-.952-.53-1.582-.53-1.582M252.7817 93.4742s.121.12.301.359c.168.243.427.588.664 1.043.241.451.49.998.689 1.608.217.605.361 1.276.486 1.948.1.678.157 1.36.157 2-.011.64-.046 1.236-.134 1.74-.057.506-.189.916-.253 1.204-.074.287-.128.448-.128.448s-.018-.171-.031-.466c-.007-.294-.024-.712-.06-1.209-.018-.497-.073-1.071-.117-1.683-.069-.611-.134-1.26-.246-1.903-.205-1.288-.511-2.559-.798-3.507-.275-.952-.53-1.582-.53-1.582M250.3141 93.4742s.121.12.301.359c.168.243.427.588.664 1.043.241.451.491.998.689 1.608.218.605.361 1.276.486 1.948.1.678.157 1.36.157 2-.011.64-.046 1.236-.134 1.74-.057.506-.189.916-.253 1.204-.074.287-.128.448-.128.448s-.018-.171-.031-.466c-.007-.294-.024-.712-.06-1.209-.018-.497-.073-1.071-.117-1.683-.069-.611-.134-1.26-.246-1.903-.204-1.288-.511-2.559-.798-3.507-.275-.952-.53-1.582-.53-1.582M247.8465 93.8855s.121.12.301.359c.168.243.427.588.664 1.043.241.451.491.998.689 1.608.218.605.361 1.276.486 1.948.1.677.157 1.36.157 2-.011.64-.046 1.236-.134 1.74-.057.506-.189.916-.253 1.204-.074.287-.128.448-.128.448s-.018-.171-.031-.466c-.007-.294-.024-.712-.06-1.209-.018-.497-.072-1.071-.117-1.683-.069-.611-.134-1.26-.246-1.903-.204-1.288-.511-2.559-.798-3.507-.275-.952-.53-1.582-.53-1.582M245.3789 94.2968s.121.12.301.359c.169.243.427.588.664 1.043.241.451.491.998.689 1.608.217.605.361 1.276.486 1.948.1.677.157 1.36.157 2-.011.64-.046 1.236-.134 1.74-.057.506-.189.916-.253 1.204-.074.287-.128.448-.128.448s-.018-.171-.031-.466c-.007-.294-.024-.712-.06-1.209-.018-.497-.072-1.071-.117-1.683-.069-.611-.134-1.26-.246-1.903-.205-1.288-.511-2.559-.798-3.507-.275-.952-.53-1.582-.53-1.582M243.3226 95.1193s.121.12.301.359c.169.243.427.588.664 1.043.241.451.491.998.689 1.608.218.605.361 1.276.486 1.948.1.678.157 1.36.157 2-.011.64-.046 1.236-.134 1.74-.057.506-.189.916-.253 1.204-.074.287-.128.448-.128.448s-.018-.171-.031-.466c-.007-.294-.024-.712-.06-1.209-.018-.496-.072-1.071-.117-1.683-.069-.611-.134-1.26-.246-1.903-.204-1.288-.511-2.559-.798-3.507-.275-.952-.53-1.582-.53-1.582M240.855 95.9418s.121.12.301.359c.169.243.427.588.664 1.043.241.451.491.998.689 1.608.218.605.361 1.275.486 1.948.1.678.157 1.36.157 2-.011.64-.046 1.236-.134 1.74-.057.506-.189.916-.253 1.204-.074.287-.128.448-.128.448s-.018-.171-.031-.466c-.007-.294-.024-.712-.06-1.209-.018-.497-.072-1.071-.117-1.683-.069-.611-.134-1.26-.246-1.903-.204-1.288-.511-2.559-.798-3.507-.275-.952-.53-1.582-.53-1.582M238.3875 97.1756s.121.12.301.359c.168.243.427.588.664 1.043.241.451.491.998.689 1.608.217.605.361 1.276.486 1.948.1.677.157 1.36.157 2-.011.64-.046 1.236-.134 1.74-.057.506-.189.916-.253 1.204-.074.287-.128.448-.128.448s-.018-.171-.031-.466c-.007-.294-.024-.712-.06-1.209-.018-.497-.073-1.071-.117-1.683-.069-.611-.135-1.26-.246-1.903-.205-1.288-.511-2.559-.798-3.507-.275-.952-.53-1.582-.53-1.582M235.9199 98.4094s.121.12.301.359c.168.243.427.588.664 1.043.241.451.49.998.689 1.608.217.605.361 1.276.486 1.948.099.678.157 1.36.157 2-.011.64-.046 1.236-.134 1.74-.057.506-.19.916-.253 1.204-.074.287-.128.448-.128.448s-.019-.171-.031-.466c-.007-.294-.024-.712-.06-1.209-.018-.496-.073-1.071-.117-1.683-.069-.611-.135-1.26-.246-1.903-.205-1.288-.511-2.559-.798-3.507-.275-.952-.53-1.582-.53-1.582M233.4523 100.0545s.121.12.301.359c.168.243.427.588.664 1.043.241.451.491.998.689 1.607.218.606.361 1.276.486 1.949.1.677.157 1.36.157 2-.011.64-.046 1.236-.134 1.74-.057.506-.189.916-.253 1.204-.074.287-.128.448-.128.448s-.018-.171-.031-.466c-.007-.294-.024-.712-.06-1.209-.018-.497-.073-1.071-.117-1.683-.069-.611-.134-1.26-.246-1.903-.204-1.288-.511-2.559-.798-3.507-.275-.952-.53-1.582-.53-1.582"/></g><path fill="#AD59C7" d="M218.7507 109.7878l8.523-2.068c-1.483-6.11-7.639-9.862-13.749-8.379-1.51.367-2.876 1.02-4.054 1.886 4.399.7 8.164 3.961 9.28 8.561"/><g transform="translate(188 90.88)"><mask id="b" fill="#fff"><use xlink:href="#a"/></mask><path fill="#762282" d="M60.0844 8.1375c20.462 0 27.043 16.039 27.043 16.039s-1.889 1.446-4.889 3.292c1.214.978 1.915 1.618 1.915 1.618s-6.88 11.301-24.547 9.771c-10.934-.946-50.829-14.681-50.829-14.681s38.643-16.039 51.307-16.039" mask="url(#b)"/></g><path fill="#803BA0" d="M275.127 115.0567s-1.888 1.446-4.889 3.292c1.214.977 1.916 1.618 1.916 1.618s-4.229 6.94-14.562 9.205c-1.74-3.196-2.754-7.005-2.754-11.099 0-6.633 2.654-12.524 6.763-16.256 9.98 4.597 13.526 13.24 13.526 13.24"/><path fill="#9E2FAD" d="M188 127.4794l17.555-13.031-17.555-13.03c3.979 8.231 3.979 17.829 0 26.061"/><path fill="#AD59C7" d="M225.7483 117.255l8.432 2.412c-1.729 6.045-8.032 9.544-14.077 7.814-1.494-.427-2.832-1.135-3.974-2.048 4.424-.521 8.317-3.627 9.619-8.178"/><path fill="#D1BCED" d="M261.6627 111.3449c0 1.655 1.342 2.997 2.996 2.997 1.655 0 2.997-1.342 2.997-2.997 0-1.655-1.342-2.996-2.997-2.996-1.654 0-2.996 1.341-2.996 2.996"/><path fill="#39363D" d="M263.2329 111.3449c0 .788.639 1.426 1.426 1.426.788 0 1.427-.638 1.427-1.426 0-.788-.639-1.426-1.427-1.426-.787 0-1.426.638-1.426 1.426"/><g transform="translate(188 113.88)"><mask id="d" fill="#fff"><use xlink:href="#c"/></mask><path fill="#000" fill-opacity=".5" d="M2.9812.4615h14.573s53.122 8.248 69.573.715c0 0-1.889 1.446-4.889 3.292 1.214.978 1.916 1.618 1.916 1.618l-.016.024c-.004.007-.007.012-.014.022-.009.015-.021.033-.036.056-.009.014-.018.028-.03.045-.016.024-.035.052-.056.082-.014.021-.027.04-.044.065-.036.051-.076.108-.122.172-.02.027-.044.058-.066.088-.031.042-.063.085-.098.132-.03.039-.062.08-.094.122-.033.043-.068.087-.104.133-.038.048-.076.096-.117.147-.038.047-.079.096-.12.145-.073.089-.152.182-.235.279-.05.058-.1.116-.154.178-.055.062-.114.126-.172.19-.048.054-.097.107-.147.161-.064.07-.131.14-.199.211-.05.053-.102.106-.154.16-.074.076-.147.151-.226.229-.047.048-.098.096-.148.144-.153.151-.315.304-.485.461-.058.052-.114.105-.173.158-.092.083-.189.168-.286.252-.066.057-.132.114-.199.171-.101.086-.203.172-.309.259-.068.056-.138.111-.207.167-.38.305-.788.612-1.225.919-.081.057-.162.113-.245.17-.128.087-.259.174-.391.261-.089.058-.18.116-.271.174-.137.087-.274.174-.416.26-.089.054-.181.108-.272.161-.271.16-.551.318-.84.474-.095.051-.189.103-.286.154-.152.08-.309.157-.466.235-.115.057-.229.114-.347.17-.158.076-.319.15-.483.224-.123.056-.249.11-.375.165-.166.072-.331.144-.501.213-.142.058-.288.113-.432.169-.29.112-.585.22-.888.325-.154.053-.306.107-.463.158-.176.057-.355.112-.535.166-.16.049-.321.096-.485.143-.181.051-.364.102-.55.151-.179.046-.362.09-.544.134-.179.042-.354.087-.536.127-2.851.625-6.165.896-9.986.565-3.566-.309-10.213-1.978-17.552-4.087-2.751 2.055-6.395 2.848-9.95 1.831-1.495-.428-2.833-1.135-3.975-2.049 2.042-.24 3.968-1.038 5.581-2.268-7.457-2.289-14.719-4.673-19.465-6.259L.0002 13.5995c2.005-4.149 2.997-8.645 2.981-13.138" mask="url(#d)"/></g><g fill="#320658" opacity=".5"><path d="M1336.670711 133.0575417l9.0694107 3.8523437c3.0787261 1.3076835 6.660184.5394393 8.9050716-1.9067076C1359.0370127 130.2181364 1365.288373 128 1372.2011373 128c16.4476677 0 21.8190447 16.8592668 21.7988057 17.0682102-2.430275.0246283-6.012542.2923618-6.012542.2923618s.945556 1.3060947 2.334747 2.1148564C1387.019986 151.9808194 1380.1476994 156 1372.2011373 156c-6.8026652 0-12.9738799-2.1418681-17.3616515-6.7918511-2.4124649-2.5573715-6.2108827-3.3454772-9.4701389-1.9607309-2.6618069 1.1305187-5.8174404 2.4707752-8.6986359 3.6950403l-.9390803-1.1726251c-3.6421743-4.5490864-3.6421743-10.9913745 0-15.5404608l.9390803-1.1718307zM1402.407223 157.251461l5.947376 2.4766681c2.018632.8407327 4.366903.346969 5.838856-1.2261666C1417.073718 155.426341 1421.172993 154 1425.705532 154c10.785891 0 14.308298 10.8384649 14.294427 10.9726995-1.592712.0157-3.942615.1876145-3.942615.1876145s.620113.8399477 1.531517 1.3596162C1435.42336 169.4165722 1430.916931 172 1425.705532 172c-4.45992 0-8.506975-1.3761012-11.383975-4.3661579-1.582105-1.6437854-4.073165-2.150109-6.210108-1.2607065-1.745292.726908-3.814513 1.5888356-5.704226 2.3754034l-.616034-.7535979c-2.388252-2.9241169-2.388252-7.0657653 0-9.9898822l.616034-.7535979zM1331.407031 169.251461l5.9474064 2.4766681c2.0186422.8407327 4.3669253.346969 5.838886-1.2253816C1346.0736011 167.426341 1350.1728972 166 1354.705459 166c10.7859466 0 14.3083712 10.8384649 14.2945002 10.9726995-1.5927201.0157-3.9426351.1876145-3.9426351.1876145s.6201164.8399477 1.5315244 1.3596162C1364.4233366 181.4165722 1359.916885 184 1354.705459 184c-4.4599429 0-8.5070187-1.3761012-11.3840326-4.3661579-1.5821129-1.6437854-4.073186-2.150109-6.21014-1.2607065-1.7453014.726908-3.8145321 1.5888356-5.7042554 2.3754034l-.6152208-.7535979c-2.3890803-2.9241169-2.3890803-7.0657653 0-9.9898822l.6152208-.7535979zM1288.68502573 143.3480071l4.16305192 1.7884651c1.41280768.6072981 3.05734148.2507194 4.0876808-.8850793C1298.9515351 142.0299394 1301.8212506 141 1304.9940542 141c7.5499416 0 10.0155396 7.827221 10.0059178 7.924325-1.1153323.011939-2.7598661.1361048-2.7598661.1361048s.4337849.6065022 1.072034.9821833C1311.7958973 152.1343293 1308.6415356 154 1304.9940542 154c-3.1222889 0-5.9551206-.9941223-7.9692937-3.1534929-1.10731407-1.1875345-2.8512736-1.5528685-4.3474706-.9105492-1.2211726.5253168-2.66926038 1.1477377-3.99226417 1.716035l-.4305776-.5444193c-1.6725975-2.1116145-1.6725975-5.1035327 0-7.2151472l.4305776-.5444193zM1318.407031 108.25146097l5.9474064 2.47666812c2.0186422.84073265 4.3669253.34696902 5.838886-1.2261666C1333.0736011 106.42634103 1337.1728972 105 1341.705459 105c10.7859466 0 14.3083712 10.8384649 14.2945002 10.9726995-1.5927201.0157-3.9426351.1876145-3.9426351.1876145s.6201164.8399477 1.5315244 1.3596162C1351.4233366 120.4165722 1346.916885 123 1341.705459 123c-4.4599429 0-8.5070187-1.3768862-11.3840326-4.3661579-1.5821129-1.6437854-4.073186-2.150109-6.21014-1.2607065-1.7453014.726908-3.8145321 1.5888356-5.7042554 2.3754034l-.6152208-.7535979c-2.3890803-2.9241169-2.3890803-7.06576535 0-9.98988223l.6152208-.7535979z"/></g><g><path fill="#E8A514" d="M1231 73c-8.5122961 0-19-5.8595927-19-11s10.4877039-11 19-11c-3.6605186 6.8581994-3.6605186 15.1418006 0 22"/><path fill="#000" d="M1231 73c-8.5122961 0-19-5.8595927-19-11s10.4877039-11 19-11c-3.6605186 6.8581994-3.6605186 15.1418006 0 22"/><path fill="#E8A514" d="M1221.9254312 36.24348c-16.8589375 0-30.4415625 2.8152-40.39875 12.03-3.8201875 3.5352-7.30074995 7.38-12.47349995 7.0836-.0011875 0 2.11375.1212-.0035625 0-1.159-.066-2.239625.5916-2.7229375 1.6584-.0225625.0492-.045125.0996-.0676875.15-.3479375.7656-.344375 1.6488.0059375 2.4132.349125.7656 1.01175 1.338 1.8145 1.5684 1.7563125.5028 3.99 1.0776 6.0313125 1.584-2.9034375.9528-4.1550625 2.0988-4.4163125 2.3652-.8514375.8652-.8704375 2.2872-.01425 3.1476.43225.4356.9939375.654 1.5520625.654.548625 0 1.0960625-.2112 1.517625-.6408.007125-.006.09975-.084.2933125-.2112 1.7895625-1.1676 4.17524995-.66 5.34731245 1.1376 6.633375 10.1772 26.6890625 19.6164 43.5349375 19.6164-8.8219375-16.3848-8.8219375-36.1716 0-52.5564"/><g fill="#000"><path d="M1194.8954762 40.13301628c-2.9059524 1.0686279-5.63214287 2.39344186-8.17261906 4.01476744-1.63809524 10.62579068-1.92738095 21.40695348-.86904762 32.08730228 2.37142858 1.7387442 5.07738096 3.3683721 8 4.8343256-1.98690476-13.5909069-1.6404762-27.4344418 1.04166667-40.93639532M1209.3786905 36.8845535c-2.7071429.30481394-5.3083334.72823255-7.7988095 1.2904186-3.0714286 15.1185349-3.377381 30.652186-.9202381 45.8537442 2.5666666.9571395 5.2190476 1.7766977 7.8988095 2.4302093-3.1619048-16.3899768-2.8880953-33.2697907.8202381-49.5743721"/></g><path fill="#000" d="M1190 55c0 2.2090826-1.7906445 4-3.9993905 4C1183.7906445 59 1182 57.2090826 1182 55s1.7906445-4 4.0006095-4C1188.2093555 51 1190 52.7909174 1190 55"/><path fill="#FFF" d="M1187 54.5c0 .8289474-.6720407 1.5-1.4993636 1.5C1184.6720407 56 1184 55.3289474 1184 54.5s.6720407-1.5 1.5006364-1.5C1186.3279593 53 1187 53.6710526 1187 54.5"/><path fill="#000" d="M1166.30039298 59.8448c.35908772.7308 1.0056842 1.2792 1.7882807 1.5024.8565614.2436 1.82764913.5052 2.83333334.7668-1.68926316-.6972-3.2365614-1.4568-4.62161404-2.2692"/><g transform="translate(1168.386 61.2)"><mask id="f" fill="#fff"><use xlink:href="#e"/></mask><path fill="#000" fill-opacity=".5" d="M60.8081053.10784C53.3853684 3.59504 42.67 5.78624 30.7544912 5.78624c-9.6846316 0-18.5747368-1.4484-25.55129822-3.8628-2.51957894.9084-3.63263158 1.9236-3.87838596 2.172-.85536842.8664-.87445614 2.2884-.0131228 3.1488.4342456.4344.99733332.654 1.55922806.654.5511579 0 1.1011228-.2124 1.52463158-.6408.0059649-.006.09901754-.0852.29347368-.2112 1.79782457-1.1676 4.1957193-.6612 5.37319296 1.1364 6.664 10.1772 26.8122807 19.6176 43.7359299 19.6176-3.536-6.5364-5.6571229-13.6152-6.3717193-20.8032 3.8986666 3.2004 10.4636491 5.7204 16.1708771 5.7204-2.1199298-3.9168-3.0480701-8.292-2.7891929-12.6096" mask="url(#f)"/></g><path fill="#E8A514" d="M1299 71c-6.27182 0-14-4.2615041-14-8s7.72818-8 14-8c-2.697226 4.9882353-2.697226 11.0117647 0 16"/><path fill="#000" d="M1299 71c-6.27182 0-14-4.2615041-14-8s7.72818-8 14-8c-2.697226 4.9882353-2.697226 11.0117647 0 16"/><path fill="#E8A514" d="M1292 44c-12.057968 0-21.772315 2.0348963-28.8940449 8.6977349-2.733045 2.5568809-5.2229954 5.3367807-8.9225188 5.1222004 0 0 1.5128514.088002-.0023601 0-.8284101-.0482203-1.6013568.4279551-1.9471176 1.1982742-.016521.0361652-.033042.0723304-.049563.1084957-.247815.5545333-.2454549 1.1922466.0047203 1.7455745.2501751.5533278.7245637.9680223 1.2980783 1.1331768 1.2567759.3640632 2.8534124.7799632 4.3143406 1.1464374-2.0769254.6883447-2.9725995 1.5165282-3.1590508 1.7094093-.6089168.6256583-.6230776 1.653956-.0094406 2.2759977.3091787.3146374.7104029.4737644 1.109267.4737644.3929638 0 .7847474-.1543049 1.0856656-.4641203.0047203-.0036165.0708043-.0614809.2100527-.1530994 1.2791972-.8438551 2.9867603-.4773809 3.8246109.8233614C1265.6065261 75.1756234 1279.951472 82 1292 82c-6.309841-11.8465199-6.309841-26.1534801 0-38"/><g fill="#000"><path d="M1273.35996 46.3902742c-2.1084.7746129-4.086 1.73303225-5.9292 2.90748386-1.188 7.69719354-1.398 15.50538714-.63 23.24077424 1.7208 1.2591935 3.6828 2.4396129 5.8032 3.5018709-1.4412-9.8443871-1.1904-19.8713871.756-29.650129M1283.8674 44.03743226c-1.9644.22080645-3.852.52754838-5.658.93454838-2.2284 10.95080646-2.4504 22.20119356-.6672 33.21167746 1.8624.6934516 3.786 1.2866451 5.73 1.7592903-2.2932-11.8710323-2.0952-24.0965484.5952-35.90551614"/></g><path fill="#000" d="M1270 58c0 1.6562235-1.342791 3-3.000635 3C1265.3427906 61 1264 59.6562235 1264 58s1.3427906-3 2.999365-3C1268.657209 55 1270 56.3437765 1270 58"/><path fill="#FFF" d="M1267 57c0 .5518868-.448113 1-1 1-.553066 0-1-.4481132-1-1s.446934-1 1-1c.551887 0 1 .4481132 1 1"/><g fill="#000"><path d="M1251.97533902 60.62233158c.25934147.53142105.72543903.92847368 1.2895366 1.0906842.61787804.17673685 1.31702438.36678948 2.0424634.5568421-1.21782926-.506-2.33287804-1.05678946-3.332-1.6475263"/><path fill-opacity=".5" d="M1297.3235244 61.68456842c-5.3529512 2.53242105-13.0782195 4.12305263-21.6687561 4.12305263-6.9830976 0-13.3937317-1.05194737-18.424-2.80478947-1.81658537.65973684-2.6185122 1.39694737-2.79658537 1.5773158-.61668293.62826315-.62982927 1.6608421-.00956098 2.28547367.31312195.31594737.71946342.47573684 1.12460976.47573684.39797562 0 .79356098-.15494737 1.0995122-.46605264.0047805-.00363158.07170732-.06173684.2115366-.15373684 1.2967073-.84736842 3.02485365-.47936842 3.87339023.82557895C1265.5392561 74.9362 1280.0671585 81.7902 1292.2693537 81.7902c-2.5503903-4.7452632-4.0789513-9.8851579-4.5940488-15.10373684 2.8109268 2.32421052 7.5448049 4.15331574 11.6584146 4.15331574-1.5273658-2.84352627-2.1966341-6.01994732-2.0101951-9.15521048"/></g><g transform="translate(1346 57)"><mask id="h" fill="#fff"><use xlink:href="#g"/></mask><path fill="#E8A514" d="M10.3941444 10.5512C6.16525556 10.5512.95492222 7.748.95492222 5.288c0-2.46 5.21033334-5.2644 9.43922218-5.2644-1.81866662 3.282-1.81866662 7.2456 0 10.5276" mask="url(#h)"/></g><g transform="translate(1346 57)"><mask id="j" fill="#fff"><use xlink:href="#i"/></mask><path fill="#000" d="M10.3941444 10.5512C6.16525556 10.5512.95492222 7.748.95492222 5.288c0-2.46 5.21033334-5.2644 9.43922218-5.2644-1.81866662 3.282-1.81866662 7.2456 0 10.5276" mask="url(#j)"/></g><path fill="#E8A514" d="M1352 50c-7.838397 0-14.152564 1.3392424-18.781622 5.7224381-1.775529 1.6816416-3.394878 3.5101991-5.798653 3.369354 0 0 .982882.0582808-.002348 0-.537826-.0315687-1.040423.2816902-1.265887.7892181-.010569.0230695-.021137.0473531-.031706.0716367-.160878.3642545-.159704.7831472.003523 1.1474017.162052.3642545.470891.6362311.843141.7467217.817308.2391938 1.855381.5123846 2.804209.7527926-1.349261.4528897-1.93171.9980573-2.052662 1.1255464-.39691.4116076-.40513 1.0879067-.007046 1.4970859.200804.2064109.461497.3108305.72219.3108305.254821 0 .509643-.100777.704575-.3047596.003523-.0024283.046972-.0400679.136218-.100777.832573-.554881 1.942278-.3132589 2.485975.541525C1334.844772 70.5099563 1344.168648 75 1352 75c-4.101801-7.793832-4.101801-17.206168 0-25"/><g fill="#000"><path d="M1338.71804 51.78476c-1.3776.5088-2.6688 1.1388-3.8724 1.9092-.7764 5.0544-.9132 10.1832-.4128 15.264 1.1244.8256 2.406 1.602 3.792 2.2992-.942-6.4644-.7776-13.05.4932-19.4724M1345.58156 50.23964c-1.2828.1452-2.5164.3468-3.696.6144-1.4556 7.1904-1.6008 14.58-.4356 21.81 1.2156.456 2.4732.846 3.7428 1.1556-1.4988-7.7952-1.3692-15.8244.3888-23.58"/></g><path fill="#000" d="M1337 59c0 1.1043422-.895948 2-2.000648 2S1333 60.1043422 1333 59s.894652-2 1.999352-2S1337 57.8956578 1337 59"/><path fill="#FFF" d="M1335 58.5c0 .2761733-.223827.5-.5.5s-.5-.2238267-.5-.5.223827-.5.5-.5.5.2238267.5.5"/><g><path fill="#000" d="M1325.73493333 61.13125c.1671111.33366667.46933334.5845.83555556.68716667.3994074.11083333.85333332.22983333 1.32266666.35-.78814815-.3185-1.51111112-.66616667-2.15822223-1.03716667"/><g transform="translate(1326.185 61)"><mask id="l" fill="#fff"><use xlink:href="#k"/></mask><path fill="#000" fill-opacity=".5" d="M28.9249185.79998333c-3.4666666 1.59483334-8.4717037 2.59583334-14.0361481 2.59583334-4.5238519 0-8.67674077-.66266667-11.93481484-1.76633334-1.1768889.41533334-1.696.87966667-1.81096297.99283334-.3994074.39666666-.4088889 1.0465-.00711112 1.43966666.20385185.19833334.46696296.29866667.7288889.29866667.25718518 0 .51437036-.09683333.7122963-.29283333.00237036-.00233334.0462222-.0385.13748147-.09683334.8391111-.53316666 1.9591111-.301 2.50903704.52033334 3.11229628 4.6515 12.5226667 8.96583333 20.4266667 8.96583333-1.650963-2.9878333-2.6417778-6.223-2.9748149-9.50833333 1.8204445 1.463 4.8865186 2.6145 7.552 2.6145C29.2378074 4.77365 28.8040296 2.77398333 28.9249185.79998333" mask="url(#l)"/></g></g></g><g fill="#3F2466"><path d="M88.713 51.3047c-.129-.034-.256-.074-.383-.113-.086-.026-.173-.051-.258-.08-.148-.05-.294-.105-.439-.162-.06-.023-.12-.046-.18-.07-.161-.067-.32-.139-.477-.214-.039-.019-.078-.037-.117-.056-.171-.084-.339-.173-.504-.267-.022-.012-.044-.024-.066-.037-.176-.102-.35-.209-.52-.321-.009-.006-.017-.011-.025-.017-.178-.118-.353-.242-.524-.373.004-.001.008-.002.012-.004 3.629-1.113 7.203-2.253 10.369-3.282.012-.004.023-.007.035-.011 1.395-.454 2.71-.885 3.915-1.283.011-.004.022-.008.034-.012.905-.299 1.747-.579 2.513-.835l12.353 9.169c-.217-.449-.42-.901-.609-1.358-.039-.093-.07-.189-.108-.282-.147-.367-.291-.734-.421-1.105-.023-.067-.041-.134-.064-.201-.136-.401-.267-.803-.383-1.209-.01-.035-.017-.071-.027-.106-.124-.438-.238-.879-.338-1.322-.003-.013-.005-.026-.008-.039-.425-1.899-.634-3.835-.627-5.77.013-3.834.873-7.666 2.585-11.206l-13.01 9.656c-3.314-1.304-7.85-3.044-12.73-4.785 1.471-2.707 4.124-4.56 7.122-5.037-1.022-.751-2.206-1.317-3.516-1.635-4.2-1.02-8.416.82-10.628 4.263-7.651-2.511-15.141-4.544-19.339-4.544-4.719 0-8.579.989-11.714 2.433-.002-.002-.004-.004-.006-.005-.121.055-.237.114-.355.171-.096.046-.193.092-.288.139-.315.156-.625.316-.925.481-.028.016-.055.032-.083.048-.275.153-.542.309-.804.468-.09.055-.178.11-.266.165-.211.132-.418.265-.62.4-.075.051-.152.1-.225.15-.264.18-.52.363-.769.547-.052.039-.102.079-.154.118-.201.151-.397.304-.588.457-.075.061-.15.122-.224.183-.181.148-.357.298-.529.447-.052.046-.106.091-.158.137-.214.19-.422.381-.623.572-.056.053-.109.106-.163.158-.152.147-.3.293-.443.439-.06.061-.12.122-.179.182-.156.163-.308.325-.456.486-.028.031-.058.062-.086.094-.171.189-.334.376-.493.562-.047.056-.093.111-.14.167-.115.138-.227.274-.335.409-.045.056-.089.111-.132.166-.141.178-.278.355-.406.528-.011.014-.02.027-.031.041-.12.163-.235.322-.345.479-.037.052-.072.102-.107.154-.086.123-.168.243-.247.362-.029.044-.06.089-.089.133-.1.154-.197.303-.286.447-.018.029-.034.056-.052.085-.073.118-.142.231-.207.341-.026.044-.05.085-.075.128-.058.099-.113.195-.165.287-.016.03-.034.061-.051.09-.064.116-.123.225-.177.327-.014.027-.026.05-.04.076-.04.077-.078.15-.112.217-.013.027-.027.053-.039.079-.035.071-.067.136-.095.194-.004.009-.01.019-.014.028-.032.067-.057.123-.079.171-.007.015-.011.025-.017.038-.015.032-.026.057-.035.077-.004.01-.006.015-.009.022-.008.018-.013.03-.013.03s.41.313 1.144.827c.184.128.388.269.611.421.669.455 1.509 1.006 2.485 1.606-.395.318-.727.595-.989.817-.435.369-.672.586-.672.586s.012.02.031.049c.007.011.009.014.019.029.002.004.003.006.006.01v.001c.028.042.065.097.115.169.004.005.008.01.011.015.052.074.117.164.192.265.012.016.022.029.035.046.028.038.058.076.09.117l.012.015c.058.075.12.154.188.238.012.015.024.03.036.044.02.024.039.047.059.072.097.117.201.24.316.371.007.007.012.013.018.02.137.155.289.32.452.491l.001.001c.007.008.015.016.022.023.021.023.043.045.065.068.004.003.007.007.011.011.234.242.494.496.78.759h.001l.004.005c.126.116.257.232.393.351 0 0 0 .001.001.001.016.014.033.028.049.042.029.025.057.05.086.074.485.415 1.032.842 1.645 1.266.03.021.059.042.09.063.15.102.304.204.462.306.045.029.09.059.136.088 0 0 .001 0 .001.001.123.078.247.155.374.233.025.015.052.03.077.045.048.029.096.057.145.086.235.139.477.275.728.41v.001c.061.032.121.065.182.098.02.01.038.021.057.031.003.001.006.003.009.004v.001c.373.195.765.383 1.171.566.05.022.1.044.15.065.619.273 1.276.528 1.973.76.045.016.09.032.136.047.152.049.307.096.462.144h.001c.036.011.073.021.109.032.07.021.14.041.211.062.264.076.535.148.81.217.08.02.159.04.24.059l.001.001c.155.037.306.075.463.11.015.003.03.005.045.009.467.101.952.188 1.448.266.171.027.34.056.514.08.179.024.362.044.544.065.192.023.384.045.58.063.178.017.359.031.54.044.211.016.424.03.639.042.177.009.355.017.534.023.234.008.471.012.71.014.17.002.339.005.512.003.274-.001.553-.009.834-.019.146-.004.289-.006.437-.013.434-.021.873-.048 1.322-.087.175-.015.361-.035.553-.058.058-.007.117-.014.176-.022.144-.018.292-.038.444-.06.064-.009.128-.018.193-.028.181-.027.368-.057.56-.089.035-.005.067-.01.102-.016.228-.039.464-.082.707-.127.065-.012.132-.026.199-.038.184-.035.371-.072.563-.11.081-.017.162-.033.243-.05.205-.042.414-.086.626-.131.059-.013.117-.025.176-.038.278-.06.562-.123.852-.189.041-.01.083-.02.125-.029.248-.057.501-.116.758-.177.08-.019.161-.038.241-.057.243-.058.488-.118.737-.179.065-.016.129-.031.194-.047.639-.158 1.298-.326 1.974-.503.062-.016.125-.032.187-.049.286-.075.576-.151.868-.229l.189-.051c.705-.189 1.426-.386 2.158-.59.043-.011.086-.023.128-.035.33-.092.663-.186.997-.28.052-.015.104-.03.156-.044.369-.105.74-.211 1.114-.318.039.029.082.052.121.08.205.148.416.286.631.419.083.051.164.105.249.154.276.158.559.303.85.435.027.012.053.028.08.04.325.143.658.268.997.376.072.023.146.038.218.06.262.076.526.145.794.2.116.024.233.041.35.06.23.039.462.072.696.094.131.012.261.021.393.028.228.013.457.016.687.012.132-.002.264-.003.396-.011.246-.014.492-.041.738-.074.116-.016.231-.025.347-.044.36-.061.721-.138 1.081-.241.324-.093.639-.201.946-.323.919-.366 1.758-.86 2.501-1.454-.23-.027-.458-.063-.684-.106-.098-.019-.193-.043-.29-.065-.125-.027-.25-.054-.373-.086M48.3179 65.1198l-7.547 3.266c-2.561 1.109-5.542.458-7.41-1.616-3.655-4.058-8.857-5.938-14.608-5.938-13.687 0-18.157 14.295-18.14 14.472 2.022.021 5.003.248 5.003.248s-.786 1.107-1.943 1.793c2.748 3.821 8.467 7.228 15.08 7.228 5.66 0 10.795-1.815 14.446-5.759 2.008-2.168 5.169-2.836 7.881-1.662 2.214.958 4.84 2.095 7.238 3.133l.781-.994c3.031-3.857 3.031-9.32 0-13.177l-.781-.994zM120.6136 69.9413l-7.547 3.267c-2.561 1.108-5.542.457-7.41-1.617-3.655-4.058-8.856-5.938-14.608-5.938-13.687 0-18.157 14.295-18.14 14.472 2.022.021 5.004.248 5.004.248s-.787 1.107-1.944 1.793c2.748 3.821 8.467 7.228 15.08 7.228 5.66 0 10.795-1.815 14.446-5.759 2.008-2.168 5.169-2.836 7.881-1.662 2.214.958 4.84 2.095 7.238 3.133l.781-.994c3.031-3.857 3.031-9.32 0-13.177l-.781-.994zM142.724 3.2151l-5.658 2.449c-1.92.831-4.155.343-5.555-1.212-2.74-3.042-6.64-4.452-10.952-4.452-10.262 0-13.613 10.717-13.6 10.85 1.516.016 3.751.186 3.751.186s-.59.83-1.457 1.344c2.061 2.865 6.348 5.419 11.306 5.419 4.243 0 8.093-1.361 10.83-4.317 1.506-1.626 3.875-2.127 5.909-1.246 1.66.718 3.628 1.57 5.426 2.348l.586-.745c2.272-2.892 2.272-6.987 0-9.879l-.586-.745zM170.7099 42.8922l-5.658 2.449c-1.92.831-4.155.343-5.555-1.212-2.74-3.042-6.64-4.452-10.952-4.452-10.262 0-13.613 10.717-13.6 10.85 1.516.016 3.751.186 3.751.186s-.59.83-1.457 1.345c2.061 2.864 6.348 5.418 11.306 5.418 4.243 0 8.093-1.361 10.83-4.317 1.505-1.626 3.875-2.127 5.909-1.247 1.66.719 3.628 1.571 5.426 2.349l.586-.745c2.272-2.892 2.272-6.987 0-9.879l-.586-.745z"/></g><g><path fill="#5975C7" d="M192.5037 162.4207s.267-4.799-1.698-8.664c-.568-1.119-1.738-1.804-2.992-1.754-3.71.147-12.207 1.252-18.845 7.879-.427.427-.477 1.104-.115 1.587.811 1.081 1.918 3.249.72 6.058l22.93-5.106z"/><g fill="#000"><path d="M188.6116 154.046s.392.412.798 1.159c.199.373.406.826.57 1.33.18.5.298 1.055.401 1.611.083.56.131 1.124.131 1.654-.01.529-.038 1.022-.111 1.439-.048.418-.157.758-.21.995-.061.238-.105.371-.105.371s-.016-.142-.026-.385c-.006-.243-.02-.589-.049-1-.016-.411-.061-.886-.098-1.392-.057-.505-.111-1.042-.203-1.574-.169-1.065-.422-2.116-.659-2.9-.228-.787-.439-1.308-.439-1.308M186.571 154.046s.392.412.798 1.159c.199.373.406.826.57 1.33.18.5.298 1.055.401 1.611.083.56.131 1.124.131 1.654-.01.529-.038 1.022-.111 1.439-.047.418-.157.758-.21.995-.061.238-.105.371-.105.371s-.016-.142-.026-.385c-.006-.243-.02-.589-.049-1-.016-.411-.06-.886-.098-1.392-.056-.505-.11-1.042-.203-1.574-.169-1.065-.422-2.116-.659-2.9-.228-.787-.439-1.308-.439-1.308M184.5305 154.046s.392.412.798 1.159c.199.373.406.826.57 1.33.18.5.298 1.055.401 1.611.083.56.131 1.124.131 1.654-.01.529-.038 1.022-.111 1.439-.048.418-.157.758-.21.995-.061.238-.105.371-.105.371s-.016-.142-.026-.385c-.006-.243-.02-.589-.049-1-.016-.411-.061-.886-.098-1.392-.057-.505-.111-1.042-.203-1.574-.169-1.065-.422-2.116-.659-2.9-.228-.787-.439-1.308-.439-1.308M182.4899 154.3861s.392.412.798 1.159c.199.373.406.826.57 1.33.18.5.298 1.055.401 1.611.083.56.131 1.124.131 1.654-.01.529-.038 1.022-.111 1.438-.048.419-.157.759-.21.996-.061.238-.105.371-.105.371s-.016-.142-.026-.385c-.006-.243-.02-.589-.049-1-.016-.411-.061-.886-.098-1.392-.056-.505-.11-1.042-.203-1.574-.169-1.065-.422-2.116-.659-2.9-.228-.787-.439-1.308-.439-1.308M180.4493 154.7262s.392.412.798 1.159c.199.373.406.826.57 1.33.18.5.298 1.055.401 1.611.083.56.131 1.124.131 1.654-.01.529-.038 1.022-.111 1.439-.047.418-.157.758-.21.996-.061.237-.105.37-.105.37s-.016-.142-.026-.385c-.006-.243-.02-.589-.049-1-.016-.411-.06-.886-.098-1.392-.056-.505-.11-1.042-.203-1.574-.169-1.064-.422-2.116-.659-2.9-.228-.787-.439-1.308-.439-1.308M178.7489 155.4063s.392.412.798 1.159c.199.373.406.826.57 1.33.18.5.298 1.055.401 1.611.083.56.131 1.125.131 1.654-.01.53-.038 1.022-.111 1.439-.048.418-.157.758-.21.996-.061.237-.105.37-.105.37s-.016-.142-.026-.385c-.006-.243-.02-.589-.049-1-.016-.411-.061-.886-.098-1.392-.057-.505-.111-1.042-.203-1.574-.169-1.064-.422-2.115-.659-2.9-.228-.787-.439-1.308-.439-1.308M176.7083 156.0865s.392.412.798 1.159c.199.373.406.826.57 1.33.18.5.298 1.055.401 1.611.083.56.131 1.125.131 1.654-.01.529-.038 1.022-.111 1.439-.047.418-.157.758-.21.996-.061.237-.105.37-.105.37s-.016-.142-.026-.385c-.006-.243-.02-.589-.049-1-.016-.411-.061-.886-.098-1.392-.056-.505-.11-1.042-.203-1.574-.169-1.064-.422-2.116-.659-2.9-.228-.787-.439-1.308-.439-1.308M174.6678 157.1068s.392.412.798 1.159c.199.373.406.826.57 1.33.18.5.298 1.055.401 1.611.083.56.131 1.125.131 1.654-.01.529-.038 1.022-.111 1.439-.048.418-.157.758-.21.996-.061.237-.105.37-.105.37s-.016-.142-.026-.385c-.006-.243-.02-.589-.049-1-.016-.411-.061-.886-.098-1.392-.057-.505-.111-1.042-.203-1.574-.169-1.064-.422-2.115-.659-2.9-.228-.787-.439-1.308-.439-1.308M172.6272 158.1271s.392.412.798 1.159c.199.373.406.826.57 1.33.18.5.298 1.055.401 1.611.083.56.131 1.125.131 1.654-.01.529-.038 1.022-.111 1.439-.048.418-.157.758-.21.996-.061.237-.105.37-.105.37s-.016-.142-.026-.385c-.006-.243-.02-.589-.049-1-.016-.411-.061-.886-.097-1.392-.057-.505-.111-1.042-.204-1.574-.169-1.065-.422-2.116-.659-2.9-.228-.787-.439-1.308-.439-1.308M170.5866 159.4875s.392.412.798 1.159c.199.373.406.826.57 1.33.18.5.298 1.055.401 1.611.083.56.131 1.124.131 1.654-.01.529-.038 1.022-.111 1.439-.047.418-.157.758-.21.996-.061.237-.105.37-.105.37s-.016-.142-.026-.385c-.006-.243-.02-.589-.049-1-.016-.411-.06-.886-.097-1.392-.057-.505-.111-1.042-.204-1.574-.169-1.065-.422-2.116-.659-2.9-.228-.787-.439-1.308-.439-1.308"/></g><path fill="#5975C7" d="M158.4292 167.5365l7.048-1.711c-1.226-5.052-6.317-8.154-11.369-6.928-1.249.303-2.378.843-3.353 1.56 3.638.578 6.751 3.275 7.674 7.079"/><g transform="translate(133 151.152)"><mask id="n" fill="#fff"><use xlink:href="#m"/></mask><path fill="#223482" d="M49.6867 7.4783c16.921 0 22.363 13.264 22.363 13.264s-1.562 1.195-4.043 2.722c1.004.808 1.584 1.338 1.584 1.338s-5.69 9.345-20.299 8.08c-9.042-.783-42.033-12.14-42.033-12.14s31.956-13.264 42.428-13.264" mask="url(#n)"/></g><g transform="translate(188 160.152)"><mask id="p" fill="#fff"><use xlink:href="#o"/></mask><path fill="#3B5DA0" d="M17.0494 11.742s-1.562 1.195-4.043 2.722c1.004.809 1.584 1.338 1.584 1.338s-3.496 5.739-12.042 7.613c-1.438-2.643-2.277-5.794-2.277-9.179 0-5.485 2.195-10.357 5.593-13.443 8.253 3.802 11.185 10.949 11.185 10.949" mask="url(#p)"/></g><path fill="#2F46AD" d="M133 182.1665l14.517-10.776L133 160.6155c3.29 6.807 3.29 14.744 0 21.551"/><path fill="#5975C7" d="M164.2158 173.7114l6.973 1.995c-1.43 4.999-6.642 7.892-11.641 6.462-1.235-.354-2.342-.939-3.287-1.695 3.659-.43 6.878-2.999 7.955-6.762"/><path fill="#BCDFED" d="M193.9152 168.8241c0 1.368 1.109 2.478 2.478 2.478 1.368 0 2.478-1.11 2.478-2.478 0-1.369-1.11-2.478-2.478-2.478-1.369 0-2.478 1.109-2.478 2.478"/><path fill="#363B3D" d="M195.2137 168.8241c0 .651.528 1.179 1.179 1.179.652 0 1.18-.528 1.18-1.179s-.528-1.179-1.18-1.179c-.651 0-1.179.528-1.179 1.179"/><g transform="translate(133 171.152)"><mask id="r" fill="#fff"><use xlink:href="#q"/></mask><path fill="#000" fill-opacity=".5" d="M2.4653.1504h12.051s43.929 6.82 57.533.592c0 0-1.561 1.195-4.043 2.722 1.004.808 1.584 1.338 1.584 1.338s-.004.007-.012.02c-.003.005-.007.01-.012.018-.008.012-.017.027-.029.046-.008.012-.016.023-.026.037-.013.02-.029.043-.046.068-.012.018-.022.033-.036.053-.03.043-.063.09-.102.143-.016.022-.035.048-.054.073-.025.035-.052.07-.081.109-.025.032-.051.066-.078.101-.027.035-.055.072-.085.11-.032.039-.063.079-.097.121-.032.039-.066.08-.099.12-.061.074-.126.151-.195.231-.042.048-.083.096-.127.147-.046.051-.094.104-.143.158-.04.044-.079.087-.121.133-.053.057-.108.115-.164.174-.042.044-.085.088-.128.132-.061.063-.122.125-.187.19-.039.039-.081.079-.122.119-.127.124-.261.251-.402.38-.047.044-.093.087-.142.131-.077.07-.157.139-.237.209-.054.047-.109.094-.164.142-.084.071-.168.142-.256.214-.056.046-.114.092-.171.138-.314.252-.652.505-1.013.759-.067.047-.134.094-.203.141-.105.072-.214.144-.323.216-.074.048-.149.096-.224.144-.113.072-.227.144-.344.215-.074.045-.15.089-.225.133-.224.133-.456.263-.695.392-.079.043-.156.086-.236.128-.126.065-.256.129-.386.194-.094.047-.189.094-.286.14-.132.063-.265.124-.4.186-.102.046-.206.091-.31.136-.137.059-.274.119-.415.176-.117.048-.238.093-.357.14-.239.092-.484.182-.734.269-.127.044-.253.088-.383.13-.145.047-.293.093-.442.138-.132.04-.266.079-.401.118-.15.042-.301.084-.455.124-.148.039-.299.075-.45.111-.148.035-.293.072-.443.105-2.358.517-5.099.741-8.258.468-2.949-.255-8.446-1.636-14.515-3.38-2.275 1.699-5.288 2.355-8.228 1.514-1.236-.354-2.342-.939-3.287-1.694 1.689-.199 3.281-.858 4.615-1.876-6.167-1.893-12.172-3.865-16.096-5.176l-11.78 8.745c1.658-3.431 2.478-7.149 2.465-10.865" mask="url(#r)"/></g></g></g></svg>