<svg xmlns="http://www.w3.org/2000/svg" width="73" height="59"><path fill="#FFF" fill-rule="nonzero" d="M36.905556 58.449226c.287362-2.524814 1.336859-15.1454708 1.892592-16.9301209.957561-3.0750603 2.313509-5.0513713 4.067845-5.9289329 5.359484-2.4128517 5.960821-.3422872 14.268022-5.1679905 3.617651-2.546899 4.019613-5.6299872 4.287587-11.1259271.267974-3.4852302 3.081703-10.5897379 6.96733-10.5897379 1.087746 0 2.009806 0 3.349677.6702367 2.009807 1.3404731 1.205884-1.0723786.401962-1.8766625-2.81373-2.5468989-4.823536-3.2171355-8.173214-3.4852301-6.163407-.5361893-10.986943 2.2788043-13.934659 1.6085677-2.947717-.6702365-.803923-5.342319-3.215691-5.6104137-2.411768-.2680946-1.75239 3.6835588-3.885626 4.6720825-.977627.4530245-3.21569.9383312-6.431381.9383312s-5.453754-.4853067-6.431381-.9383312c-2.133236-.9885237-1.473858-4.9401771-3.885626-4.6720825-2.411768.2680947-.267974 4.9401772-3.215691 5.6104137-2.947716.6702366-7.771252-2.144757-13.934659-1.6085677-3.349678.2680946-5.359484.9383312-8.173214 3.4852301-.803922.8042839-1.607845 3.2171356.401962 1.8766625 1.339871-.6702367 2.261931-.6702367 3.349677-.6702367 3.885627 0 6.699356 7.1045077 6.96733 10.5897379.267974 5.4959399.669936 8.5790281 4.287587 11.1259271 8.307201 4.8257033 9.036151 2.7551388 14.395635 5.1679905 1.794333.8975697 3.171906 2.9445622 4.132719 6.1409773.525847 1.7493788 1.380394 14.3089705 1.656576 16.7469235.020127.700638.831238.700638.854641-.028847z"/></svg>