<svg xmlns="http://www.w3.org/2000/svg" width="1437" height="566" xmlns:xlink="http://www.w3.org/1999/xlink"><defs><path id="a" d="M6.48926916.4014732v6.090625H.4013958V.4014732h6.08787336z"/><path id="c" d="M.1678954.3563885H4.7967v4.6396518H.1678954V.3563885z"/><path id="e" d="M0 6.77312086V.27739426l6.48019294-e-8v6.49572662H0z"/><path id="g" d="M.16822654.3554873h4.63916358v4.62791948H.16822654V.35548728z"/><path id="i" d="M6.48926916.4014732v6.090625H.4013958V.4014732h6.08787336z"/><path id="k" d="M.1678954.3563885H4.7967v4.6396518H.1678954V.3563885z"/><path id="m" d="M0 6.77312086V.27739426l6.48019294-e-8v6.49572662H0z"/><path id="o" d="M.16822654.3554873h4.63916358v4.62791948H.16822654V.35548728z"/></defs><g fill="none" fill-rule="evenodd" opacity=".1"><g style="mix-blend-mode:lighten"><g transform="matrix(-1 0 0 1 1101.313 86.84)"><mask id="b" fill="#fff"><use xlink:href="#a"/></mask><path fill="#43D2DA" d="M6.4894923 3.4465625c0 1.68214286-1.36282686 3.0455357-3.04382514 3.0455357-1.68144452 0-3.04427137-1.36339284-3.04427137-3.0455357 0-1.68169643 1.36282684-3.0450893 3.04427136-3.0450893 1.68099828 0 3.04382513 1.36339287 3.04382513 3.0450893" mask="url(#b)"/></g><g fill="#43D2DA"><path d="M1173.25758785 70.6195088c.13788916 1.05892856 1.10891445 1.80267856 2.16695717 1.66071427 1.0580427-.14151786 1.8041614-1.11473214 1.665826-2.17321428-.13878164-1.0589286-1.1084682-1.8026786-2.1674034-1.66116073-1.05848896.14151786-1.80326893 1.11473214-1.66537977 2.17366072M1172.79617235 86.8745981c.12985678.9808035 1.02948314 1.6700893 2.01032578 1.5392857.97995015-.1303572 1.66939595-1.03125 1.54043166-2.0120536-.1298568-.9803571-1.02948316-1.6696428-2.0103258-1.5392857-.9803964.1308036-1.67028844 1.0316964-1.54043165 2.0120536M1165.8815888 79.7585713c.1972395 1.4825893 1.55917382 2.525 3.04070137 2.3276786 1.4819738-.1973215 2.52395176-1.559375 2.3271585-3.0424108-.19768577-1.48258924-1.5582814-2.52499996-3.04070143-2.32767853-1.48331254.19732143-2.52439804 1.55937503-2.32715844 3.04241073"/></g><g fill="#43D2DA"><path d="M1381.69833957 141.5365174c-.07720008.5910715-.61893937 1.0066965-1.20976542.9272322-.5912723-.0790179-1.00761723-.6223215-.93041715-1.2133929.07764633-.5915178.61893937-1.0066964 1.21021166-.9276786.5912723.0790179 1.007171.6223215.9299709 1.2138393M1375.17979685 119.01580314c-.13788916 1.05892857-1.10891445 1.80223215-2.16695716 1.6607143-1.0580427-.14151787-1.8041614-1.11473215-1.665826-2.1732143.1387816-1.05892857 1.10846818-1.80267857 2.1674034-1.6611607 1.05848895.14151785 1.8032689 1.11473213 1.66537975 2.1736607M1379.889091 128.4916514c-.19723952 1.4825892-1.5591739 2.525-3.04070143 2.3276785-1.4819738-.1973214-2.524398-1.559375-2.3271585-3.0424107.19723952-1.48258927 1.5582814-2.525 3.04070143-2.32767856 1.48286628.19732143 2.524398 1.55982146 2.3271585 3.04241076"/></g><path fill="#43D2DA" d="M1109.681314 104.2425446c-.067829.5138393-.539955.8754465-1.054027.8071429-.514072-.0683036-.875975-.540625-.808146-1.0544643.068275-.5138393.539954-.875 1.054472-.8066964.514073.0683036.87553.5401786.807701 1.0540178M1322.8477367 91.8021875c.067829.5138393.5399544.8754464 1.0540266.8071429.5145184-.0683036.8759754-.540625.8081465-1.0544643-.0682752-.5138393-.5399543-.875-1.0544728-.8066965-.5140722.0683036-.8755292.5401786-.8077003 1.0540179"/></g><g style="mix-blend-mode:lighten"><path fill="#0BE6FA" d="M866.6269043 372.273381c0 1.281036-1.0363859 2.319871-2.3144023 2.319871-1.2780164 0-2.3144023-1.038835-2.3144023-2.319871 0-1.281482 1.0363859-2.31987 2.3144023-2.31987 1.2780164 0 2.3144023 1.038388 2.3144023 2.31987M834.8725571 238.60909784c0 2.17758274-1.7612775 3.94391367-3.9346174 3.94391367-2.1728949 0-3.9341724-1.76633092-3.9341724-3.94391366 0-2.17802878 1.7612775-3.94391367 3.9341724-3.94391367 2.1733399 0 3.9346174 1.7658849 3.9346174 3.94391367M1020.429951 382.090078c0 1.793985 1.450673 3.24764 3.239985 3.24764 1.789757 0 3.24043-1.453655 3.24043-3.24764 0-1.79354-1.450673-3.247641-3.24043-3.247641-1.789312 0-3.239985 1.454101-3.239985 3.247641M869.8312456 524.22539c0 2.562072-2.0723267 4.639741-4.6288045 4.639741-2.5560329 0-4.6288046-2.077669-4.6288046-4.639741 0-2.562518 2.0727717-4.639741 4.6288046-4.639741 2.5564778 0 4.6288045 2.077223 4.6288045 4.639741M949.581606 541.216155c0 1.537511-1.243752 2.783756-2.777194 2.783756-1.533886 0-2.777193-1.246245-2.777193-2.783756 0-1.537064 1.243307-2.783755 2.777193-2.783755 1.533442 0 2.777194 1.246691 2.777194 2.783755M861.9455906 537.903839c0 1.153467-.9327028 2.088374-2.0830065 2.088374-1.1507488 0-2.0830066-.934907-2.0830066-2.088374 0-1.153022.9322578-2.087928 2.0830066-2.087928 1.1503037 0 2.0830065.934906 2.0830065 2.087928M903.707047 467.096315c-.587835.991108-1.865851 1.317166-2.854623.727943-.989216-.588777-1.31406-1.870259-.726226-2.861367.587834-.992 1.86585-1.317612 2.855067-.728389.988772.589223 1.313616 1.870259.725782 2.861813M990.103093 440.666696c0 1.153022-.932703 2.087928-2.083007 2.087928-1.150304 0-2.082562-.934906-2.082562-2.087928 0-1.153021.932258-2.087928 2.082562-2.087928 1.150304 0 2.083007.934907 2.083007 2.087928M936.46 243.36690647c0 1.28103593 1.036386 2.31987053 2.314402 2.31987053 1.278462 0 2.314402-1.0388346 2.314402-2.31987053 0-1.281482-1.03594-2.3198705-2.314402-2.3198705-1.278016 0-2.314402 1.0383885-2.314402 2.3198705M1023.893055 302.2446043c0 1.7935396-1.450674 3.2476403-3.239986 3.2476403-1.789757 0-3.24043-1.4541007-3.24043-3.2476403 0-1.7935396 1.450673-3.2476403 3.24043-3.2476403 1.789312 0 3.239986 1.4541007 3.239986 3.2476403M879.2044192 300.6090978c0 1.281036 1.0363859 2.3198705 2.3148473 2.3198705 1.2780164 0 2.3139573-1.0388345 2.3139573-2.3198705 0-1.281482-1.0359409-2.3198705-2.3139573-2.3198705-1.2784614 0-2.3148473 1.0383885-2.3148473 2.3198705M1014.512628 275.5713122c0 1.281482-1.036386 2.3198705-2.314403 2.3198705-1.278016 0-2.313957-1.0383885-2.313957-2.3198705 0-1.2810359 1.035941-2.3194244 2.313957-2.3194244 1.278017 0 2.314403 1.0383885 2.314403 2.3194244M1006.949948 528.478233c0 1.281036-1.036386 2.319425-2.314403 2.319425-1.278461 0-2.314402-1.038389-2.314402-2.319425 0-1.281482 1.035941-2.31987 2.314402-2.31987 1.278017 0 2.314403 1.038388 2.314403 2.31987"/><g transform="translate(968.332 234)"><mask id="d" fill="#fff"><use xlink:href="#c"/></mask><path fill="#0BE6FA" d="M4.7967 2.67616978c0 1.28103598-1.03638588 2.3198705-2.3144023 2.3198705-1.27801642 0-2.3144023-1.03883452-2.3144023-2.3198705 0-1.281482 1.03638588-2.3198705 2.3144023-2.3198705 1.27801642 0 2.3144023 1.0383885 2.3144023 2.3198705" mask="url(#d)"/></g><path fill="#0BE6FA" d="M846.1571484 292.5803209c0 1.2810359-1.0359408 2.3198705-2.3139573 2.3198705-1.2784614 0-2.3144023-1.0388346-2.3144023-2.3198705 0-1.2814821 1.0359409-2.3198705 2.3144023-2.3198705 1.2780165 0 2.3139573 1.0383884 2.3139573 2.3198705M1003.576243 405.506006c0 2.178475-1.761723 3.943913-3.934618 3.943913s-3.934617-1.765438-3.934617-3.943913c0-2.178475 1.761722-3.943468 3.934617-3.943468 2.172895 0 3.934618 1.764993 3.934618 3.943468M1045.697875 244.2589482c0 1.7939856-1.450673 3.2480863-3.239985 3.2480863-1.790202 0-3.240431-1.4541007-3.240431-3.2480863 0-1.79353957 1.450229-3.24808633 3.240431-3.24808633 1.789312 0 3.239985 1.45454676 3.239985 3.24808633"/><g transform="translate(789 398.144)"><mask id="f" fill="#fff"><use xlink:href="#e"/></mask><path fill="#0BE6FA" d="M6.48019294 3.52548058c0 1.7939856-1.45067324 3.24764028-3.23998522 3.24764028-1.78975698 0-3.24043022-1.45365467-3.24043022-3.24764028 0-1.79398562 1.45067324-3.24808633 3.24043022-3.24808633 1.78931198 0 3.23998522 1.4541007 3.23998522 3.24808633" mask="url(#f)"/></g><path fill="#0BE6FA" d="M869.9768025 492.657622c0 1.281036-1.0363859 2.319424-2.3144023 2.319424-1.2784614 0-2.3144023-1.038388-2.3144023-2.319424 0-1.281482 1.0359409-2.319871 2.3144023-2.319871 1.2780164 0 2.3144023 1.038389 2.3144023 2.319871M1059.91959 304.9208633c0 1.5375108-1.243752 2.7837554-2.777194 2.7837554-1.533886 0-2.777194-1.2462446-2.777194-2.7837554 0-1.5370647 1.243308-2.7837554 2.777194-2.7837554 1.533442 0 2.777194 1.2466907 2.777194 2.7837554M991.821962 346.099033c0 1.153468-.932702 2.087928-2.083006 2.087928-1.150304 0-2.082562-.93446-2.082562-2.087928 0-1.153021.932258-2.087928 2.082562-2.087928 1.150304 0 2.083006.934907 2.083006 2.087928M897.034573 351.288433c0 1.793986-1.450673 3.24764-3.239985 3.24764-1.789757 0-3.240431-1.453654-3.240431-3.24764s1.450674-3.248086 3.240431-3.248086c1.789312 0 3.239985 1.4541 3.239985 3.248086M894.649773 395.913669c0 2.178029-1.761278 3.943914-3.934173 3.943914-2.1733396 0-3.9346171-1.765885-3.9346171-3.943914s1.7612775-3.943914 3.9346171-3.943914c2.172895 0 3.934173 1.765885 3.934173 3.943914M985.605961 499.075068c0 1.793539 1.450673 3.24764 3.239985 3.24764 1.789757 0 3.240431-1.454101 3.240431-3.24764 0-1.79354-1.450674-3.247641-3.240431-3.247641-1.789312 0-3.239985 1.454101-3.239985 3.247641"/></g><g style="mix-blend-mode:lighten"><path fill="#0BE6FA" d="M1421.3430526 254.411017c0 1.405042-1.1421744 2.54536-2.5514953 2.54536-1.408875 0-2.5514954-1.140318-2.5514954-2.54536 0-1.405932 1.1426204-2.54536 2.5514954-2.54536 1.4093209 0 2.5514953 1.139428 2.5514953 2.54536M1286.479106 287.209591c0 1.789004 1.45392 3.239428 3.247237 3.239428 1.793762 0 3.247682-1.450424 3.247682-3.239428 0-1.789449-1.45392-3.239873-3.247682-3.239873-1.793317 0-3.247237 1.450424-3.247237 3.239873M1295.611417 385.909547c0 2.811419-2.284794 5.090275-5.102544 5.090275-2.819088 0-5.103883-2.278856-5.103883-5.090275 0-2.81142 2.284795-5.090721 5.103883-5.090721 2.81775 0 5.102544 2.279301 5.102544 5.090721M1180.062483 224.222805c0 1.789004 1.454366 3.239428 3.247236 3.239428 1.794208 0 3.248128-1.450424 3.248128-3.239428 0-1.790339-1.45392-3.239873-3.248128-3.239873-1.79287 0-3.247236 1.449534-3.247236 3.239873M1233.939709 310.334328c0 1.278242 1.038706 2.314005 2.319582 2.314005 1.280877 0 2.319582-1.035763 2.319582-2.314005 0-1.277796-1.038705-2.313559-2.319582-2.313559-1.280876 0-2.319582 1.035763-2.319582 2.313559M1282.157754 372.719811c0 1.405488-1.142175 2.545361-2.551496 2.545361-1.409321 0-2.551049-1.139873-2.551049-2.545361 0-1.405932 1.141728-2.545805 2.551049-2.545805 1.409321 0 2.551496 1.139873 2.551496 2.545805M1220.844887 182.107928c0 1.789004 1.45392 3.239428 3.247236 3.239428 1.793763 0 3.247683-1.450424 3.247683-3.239428 0-1.789449-1.45392-3.239873-3.247683-3.239873-1.793316 0-3.247236 1.450424-3.247236 3.239873M1307.927456 309.587894c0 1.277797-1.03826 2.313559-2.319582 2.313559-1.280877 0-2.319582-1.035762-2.319582-2.313559 0-1.278241 1.038705-2.314004 2.319582-2.314004 1.281322 0 2.319582 1.035763 2.319582 2.314004M1427.3243715 346.508697c0 1.277797 1.0387052 2.313559 2.3195817 2.313559 1.2808766 0 2.3195818-1.035762 2.3195818-2.313559 0-1.278241-1.0387052-2.314004-2.3195818-2.314004-1.2808765 0-2.3195817 1.035763-2.3195817 2.314004M1424.0858321 239.324119c1.5261698 2.571165 4.8461019 3.423623 7.4154367 1.903347 2.5693349-1.52072 3.4149275-4.836674 1.8892037-7.408729-1.5261697-2.57072-4.8461018-3.422733-7.4154367-1.902457-2.5693349 1.51983-3.4153735 4.836673-1.8892037 7.407839M1400.0831779 112.1864258c0 1.7890043 1.4539198 3.239428 3.2472361 3.239428 1.7937624 0 3.2476821-1.4504237 3.2476821-3.239428 0-1.7890042-1.4539197-3.2394279-3.2476821-3.2394279-1.7933163 0-3.2472361 1.4504237-3.2472361 3.2394279M1436.126027 186.042403c0 1.277796-1.0387052 2.314004-2.3195818 2.314004-1.2808765 0-2.3195818-1.036208-2.3195818-2.314004 0-1.278242 1.0387053-2.314005 2.3195818-2.314005 1.2808766 0 2.3195818 1.035763 2.3195818 2.314005"/><g transform="matrix(-1 0 0 1 1338.772 76)"><mask id="h" fill="#fff"><use xlink:href="#g"/></mask><path fill="#0BE6FA" d="M4.80739012 2.66940254c0 1.2777966-1.03870524 2.31400424-2.3195818 2.31400424-1.28087653 0-2.31958178-1.03620763-2.31958178-2.31400424 0-1.27824152 1.03870525-2.31400424 2.3195818-2.31400424 1.28087654 0 2.31958178 1.03576272 2.31958178 2.31400424" mask="url(#h)"/></g><path fill="#0BE6FA" d="M1263.463289 156.0849682c0 1.4059322-1.142174 2.5453602-2.551495 2.5453602s-2.55105-1.139428-2.55105-2.5453602 1.141729-2.5458051 2.55105-2.5458051 2.551495 1.1398729 2.551495 2.5458051M1280.37135 211.035873c0 3.706589 3.011755 6.711102 6.726832 6.711102s6.726832-3.004513 6.726832-6.711102c0-3.705699-3.011755-6.710212-6.726832-6.710212s-6.726832 3.004513-6.726832 6.710212"/></g><g style="mix-blend-mode:lighten"><g transform="matrix(-1 0 0 1 85.313 509.84)"><mask id="j" fill="#fff"><use xlink:href="#i"/></mask><path fill="#43D2DA" d="M6.4894923 3.4465625c0 1.68214286-1.36282686 3.0455357-3.04382514 3.0455357-1.68144452 0-3.04427137-1.36339284-3.04427137-3.0455357 0-1.68169643 1.36282684-3.0450893 3.04427136-3.0450893 1.68099828 0 3.04382513 1.36339287 3.04382513 3.0450893" mask="url(#j)"/></g><g fill="#43D2DA"><path d="M157.25758785 493.6195088c.13788916 1.05892856 1.10891445 1.80267856 2.16695717 1.66071427 1.0580427-.14151786 1.8041614-1.11473214 1.665826-2.17321428-.13878164-1.0589286-1.1084682-1.8026786-2.1674034-1.66116073-1.05848896.14151786-1.80326893 1.11473214-1.66537977 2.17366072M156.79617235 509.8745981c.12985678.9808035 1.02948314 1.6700893 2.01032578 1.5392857.97995015-.1303572 1.66939595-1.03125 1.54043166-2.0120536-.1298568-.9803571-1.02948316-1.6696428-2.0103258-1.5392857-.9803964.1308036-1.67028844 1.0316964-1.54043165 2.0120536M149.8815888 502.7585713c.1972395 1.4825893 1.55917382 2.525 3.04070137 2.3276786 1.4819738-.1973215 2.52395176-1.559375 2.3271585-3.0424108-.19768577-1.48258924-1.5582814-2.52499996-3.04070143-2.32767853-1.48331254.19732143-2.52439804 1.55937503-2.32715844 3.04241073"/></g><g fill="#43D2DA"><path d="M365.69833957 564.5365174c-.07720008.5910715-.61893937 1.0066965-1.20976542.9272322-.5912723-.0790179-1.00761723-.6223215-.93041715-1.2133929.07764633-.5915178.61893937-1.0066964 1.21021166-.9276786.5912723.0790179 1.007171.6223215.9299709 1.2138393M359.17979685 542.01580314c-.13788916 1.05892857-1.10891445 1.80223215-2.16695716 1.6607143-1.0580427-.14151787-1.8041614-1.11473215-1.665826-2.1732143.1387816-1.05892857 1.10846818-1.80267857 2.1674034-1.6611607 1.05848895.14151785 1.8032689 1.11473213 1.66537975 2.1736607M363.889091 551.4916514c-.19723952 1.4825892-1.5591739 2.525-3.04070143 2.3276785-1.4819738-.1973214-2.524398-1.559375-2.3271585-3.0424107.19723952-1.48258927 1.5582814-2.525 3.04070143-2.32767856 1.48286628.19732143 2.524398 1.55982146 2.3271585 3.04241076"/></g><path fill="#43D2DA" d="M93.681314 527.2425446c-.067829.5138393-.539955.8754465-1.054027.8071429-.514072-.0683036-.875975-.540625-.808146-1.0544643.068275-.5138393.539954-.875 1.054472-.8066964.514073.0683036.87553.5401786.807701 1.0540178M306.8477367 514.8021875c.067829.5138393.5399544.8754464 1.0540266.8071429.5145184-.0683036.8759754-.540625.8081465-1.0544643-.0682752-.5138393-.5399543-.875-1.0544728-.8066965-.5140722.0683036-.8755292.5401786-.8077003 1.0540179"/></g><g style="mix-blend-mode:lighten"><path fill="#0BE6FA" d="M138.273381 193.3730957c1.281036 0 2.319871 1.0363859 2.319871 2.3144023 0 1.2780164-1.038835 2.3144023-2.319871 2.3144023-1.281482 0-2.31987-1.0363859-2.31987-2.3144023 0-1.2780164 1.038388-2.3144023 2.31987-2.3144023M4.60909784 225.1274429c2.17758274 0 3.94391367 1.7612775 3.94391367 3.9346174 0 2.1728949-1.76633092 3.9341724-3.94391366 3.9341724-2.17802878 0-3.94391367-1.7612775-3.94391367-3.9341724 0-2.1733399 1.7658849-3.9346174 3.94391367-3.9346174M148.090078 39.570049c1.793985 0 3.24764-1.450673 3.24764-3.239985 0-1.789757-1.453655-3.24043-3.24764-3.24043-1.79354 0-3.247641 1.450673-3.247641 3.24043 0 1.789312 1.454101 3.239985 3.247641 3.239985M290.22539 190.1687544c2.562072 0 4.639741 2.0723267 4.639741 4.6288045 0 2.5560329-2.077669 4.6288046-4.639741 4.6288046-2.562518 0-4.639741-2.0727717-4.639741-4.6288046 0-2.5564778 2.077223-4.6288045 4.639741-4.6288045M307.216155 110.418394c1.537511 0 2.783756 1.243752 2.783756 2.777194 0 1.533886-1.246245 2.777193-2.783756 2.777193-1.537064 0-2.783755-1.243307-2.783755-2.777193 0-1.533442 1.246691-2.777194 2.783755-2.777194M303.903839 198.0544094c1.153467 0 2.088374.9327028 2.088374 2.0830065 0 1.1507488-.934907 2.0830066-2.088374 2.0830066-1.153022 0-2.087928-.9322578-2.087928-2.0830066 0-1.1503037.934906-2.0830065 2.087928-2.0830065M233.096315 156.292953c.991108.587835 1.317166 1.865851.727943 2.854623-.588777.989216-1.870259 1.31406-2.861367.726226-.992-.587834-1.317612-1.86585-.728389-2.855067.589223-.988772 1.870259-1.313616 2.861813-.725782M206.666696 69.896907c1.153022 0 2.087928.932703 2.087928 2.083007 0 1.150304-.934906 2.082562-2.087928 2.082562-1.153021 0-2.087928-.932258-2.087928-2.082562 0-1.150304.934907-2.083007 2.087928-2.083007M9.36690647 123.54c1.28103593 0 2.31987053-1.036386 2.31987053-2.314402 0-1.278462-1.0388346-2.314402-2.31987053-2.314402-1.281482 0-2.3198705 1.03594-2.3198705 2.314402 0 1.278016 1.0383885 2.314402 2.3198705 2.314402M68.2446043 36.106945c1.7935396 0 3.2476403 1.450674 3.2476403 3.239986 0 1.789757-1.4541007 3.24043-3.2476403 3.24043-1.7935396 0-3.2476403-1.450673-3.2476403-3.24043 0-1.789312 1.4541007-3.239986 3.2476403-3.239986M66.6090978 180.7955808c1.281036 0 2.3198705-1.0363859 2.3198705-2.3148473 0-1.2780164-1.0388345-2.3139573-2.3198705-2.3139573-1.281482 0-2.3198705 1.0359409-2.3198705 2.3139573 0 1.2784614 1.0383885 2.3148473 2.3198705 2.3148473M41.5713122 45.487372c1.281482 0 2.3198705 1.036386 2.3198705 2.314403 0 1.278016-1.0383885 2.313957-2.3198705 2.313957-1.2810359 0-2.3194244-1.035941-2.3194244-2.313957 0-1.278017 1.0383885-2.314403 2.3194244-2.314403M294.478233 53.050052c1.281036 0 2.319425 1.036386 2.319425 2.314403 0 1.278461-1.038389 2.314402-2.319425 2.314402-1.281482 0-2.31987-1.035941-2.31987-2.314402 0-1.278017 1.038388-2.314403 2.31987-2.314403"/><g transform="rotate(-90 45.834 45.834)"><mask id="l" fill="#fff"><use xlink:href="#k"/></mask><path fill="#0BE6FA" d="M4.7967 2.67616978c0 1.28103598-1.03638588 2.3198705-2.3144023 2.3198705-1.27801642 0-2.3144023-1.03883452-2.3144023-2.3198705 0-1.281482 1.03638588-2.3198705 2.3144023-2.3198705 1.27801642 0 2.3144023 1.0383885 2.3144023 2.3198705" mask="url(#l)"/></g><path fill="#0BE6FA" d="M58.5803209 213.8428516c1.2810359 0 2.3198705 1.0359408 2.3198705 2.3139573 0 1.2784614-1.0388346 2.3144023-2.3198705 2.3144023-1.2814821 0-2.3198705-1.0359409-2.3198705-2.3144023 0-1.2780165 1.0383884-2.3139573 2.3198705-2.3139573M171.506006 56.423757c2.178475 0 3.943913 1.761723 3.943913 3.934618s-1.765438 3.934617-3.943913 3.934617c-2.178475 0-3.943468-1.761722-3.943468-3.934617 0-2.172895 1.764993-3.934618 3.943468-3.934618M10.2589482 14.302125c1.7939856 0 3.2480863 1.450673 3.2480863 3.239985 0 1.790202-1.4541007 3.240431-3.2480863 3.240431-1.79353957 0-3.24808633-1.450229-3.24808633-3.240431 0-1.789312 1.45454676-3.239985 3.24808633-3.239985"/><g transform="rotate(-90 217.572 53.428)"><mask id="n" fill="#fff"><use xlink:href="#m"/></mask><path fill="#0BE6FA" d="M6.48019294 3.52548058c0 1.7939856-1.45067324 3.24764028-3.23998522 3.24764028-1.78975698 0-3.24043022-1.45365467-3.24043022-3.24764028 0-1.79398562 1.45067324-3.24808633 3.24043022-3.24808633 1.78931198 0 3.23998522 1.4541007 3.23998522 3.24808633" mask="url(#n)"/></g><path fill="#0BE6FA" d="M258.657622 190.0231975c1.281036 0 2.319424 1.0363859 2.319424 2.3144023 0 1.2784614-1.038388 2.3144023-2.319424 2.3144023-1.281482 0-2.319871-1.0359409-2.319871-2.3144023 0-1.2780164 1.038389-2.3144023 2.319871-2.3144023M70.9208633.08041c1.5375108 0 2.7837554 1.243752 2.7837554 2.777194 0 1.533886-1.2462446 2.777194-2.7837554 2.777194-1.5370647 0-2.7837554-1.243308-2.7837554-2.777194 0-1.533442 1.2466907-2.777194 2.7837554-2.777194M112.099033 68.178038c1.153468 0 2.087928.932702 2.087928 2.083006 0 1.150304-.93446 2.082562-2.087928 2.082562-1.153021 0-2.087928-.932258-2.087928-2.082562 0-1.150304.934907-2.083006 2.087928-2.083006M117.288433 162.965427c1.793986 0 3.24764 1.450673 3.24764 3.239985 0 1.789757-1.453654 3.240431-3.24764 3.240431s-3.248086-1.450674-3.248086-3.240431c0-1.789312 1.4541-3.239985 3.248086-3.239985M161.913669 165.350227c2.178029 0 3.943914 1.761278 3.943914 3.934173 0 2.1733396-1.765885 3.9346171-3.943914 3.9346171s-3.943914-1.7612775-3.943914-3.9346171c0-2.172895 1.765885-3.934173 3.943914-3.934173M265.075068 74.394039c1.793539 0 3.24764-1.450673 3.24764-3.239985 0-1.789757-1.454101-3.240431-3.24764-3.240431-1.79354 0-3.247641 1.450674-3.247641 3.240431 0 1.789312 1.454101 3.239985 3.247641 3.239985"/></g><g style="mix-blend-mode:lighten"><path fill="#0BE6FA" d="M611.72996173 332.986169c0 1.396145 1.1345926 2.528009 2.53410185 2.528009 1.39950926 0 2.53410185-1.131864 2.53410185-2.528009 0-1.396144-1.1345926-2.528008-2.53410185-2.528008-1.39950926 0-2.53410185 1.131864-2.53410185 2.528008M613.07546188 239.2798093c0 1.7890043 1.45391976 3.239428 3.2472361 3.239428 1.79376236 0 3.2476821-1.4504237 3.2476821-3.239428 0-1.7894491-1.45391974-3.2398729-3.2476821-3.2398729-1.79331634 0-3.2472361 1.4504238-3.2472361 3.2398729M572.3430526 328.411017c0 1.405042-1.1421744 2.54536-2.5514953 2.54536-1.408875 0-2.5514954-1.140318-2.5514954-2.54536 0-1.405932 1.1426204-2.54536 2.5514954-2.54536 1.4093209 0 2.5514953 1.139428 2.5514953 2.54536M437.479106 361.209591c0 1.789004 1.45392 3.239428 3.247237 3.239428 1.793762 0 3.247682-1.450424 3.247682-3.239428 0-1.789449-1.45392-3.239873-3.247682-3.239873-1.793317 0-3.247237 1.450424-3.247237 3.239873M446.611417 459.909547c0 2.811419-2.284794 5.090275-5.102544 5.090275-2.819088 0-5.103883-2.278856-5.103883-5.090275 0-2.81142 2.284795-5.090721 5.103883-5.090721 2.81775 0 5.102544 2.279301 5.102544 5.090721M331.062483 298.222805c0 1.789004 1.454366 3.239428 3.247236 3.239428 1.794208 0 3.248128-1.450424 3.248128-3.239428 0-1.790339-1.45392-3.239873-3.248128-3.239873-1.79287 0-3.247236 1.449534-3.247236 3.239873M384.939709 384.334328c0 1.278242 1.038706 2.314005 2.319582 2.314005 1.280877 0 2.319582-1.035763 2.319582-2.314005 0-1.277796-1.038705-2.313559-2.319582-2.313559-1.280876 0-2.319582 1.035763-2.319582 2.313559M433.157754 446.719811c0 1.405488-1.142175 2.545361-2.551496 2.545361-1.409321 0-2.551049-1.139873-2.551049-2.545361 0-1.405932 1.141728-2.545805 2.551049-2.545805 1.409321 0 2.551496 1.139873 2.551496 2.545805M371.844887 256.107928c0 1.789004 1.45392 3.239428 3.247236 3.239428 1.793763 0 3.247683-1.450424 3.247683-3.239428 0-1.789449-1.45392-3.239873-3.247683-3.239873-1.793316 0-3.247236 1.450424-3.247236 3.239873M458.927456 383.587894c0 1.277797-1.03826 2.313559-2.319582 2.313559-1.280877 0-2.319582-1.035762-2.319582-2.313559 0-1.278241 1.038705-2.314004 2.319582-2.314004 1.281322 0 2.319582 1.035763 2.319582 2.314004M578.3243715 420.508697c0 1.277797 1.0387052 2.313559 2.3195817 2.313559 1.2808766 0 2.3195818-1.035762 2.3195818-2.313559 0-1.278241-1.0387052-2.314004-2.3195818-2.314004-1.2808765 0-2.3195817 1.035763-2.3195817 2.314004M575.0858321 313.324119c1.5261698 2.571165 4.8461019 3.423623 7.4154367 1.903347 2.5693349-1.52072 3.4149275-4.836674 1.8892037-7.408729-1.5261697-2.57072-4.8461018-3.422733-7.4154367-1.902457-2.5693349 1.51983-3.4153735 4.836673-1.8892037 7.407839M551.0831779 186.1864258c0 1.7890043 1.4539198 3.239428 3.2472361 3.239428 1.7937624 0 3.2476821-1.4504237 3.2476821-3.239428 0-1.7890042-1.4539197-3.2394279-3.2476821-3.2394279-1.7933163 0-3.2472361 1.4504237-3.2472361 3.2394279M587.126027 260.042403c0 1.277796-1.0387052 2.314004-2.3195818 2.314004-1.2808765 0-2.3195818-1.036208-2.3195818-2.314004 0-1.278242 1.0387053-2.314005 2.3195818-2.314005 1.2808766 0 2.3195818 1.035763 2.3195818 2.314005"/><g transform="matrix(-1 0 0 1 489.772 150)"><mask id="p" fill="#fff"><use xlink:href="#o"/></mask><path fill="#0BE6FA" d="M4.80739012 2.66940254c0 1.2777966-1.03870524 2.31400424-2.3195818 2.31400424-1.28087653 0-2.31958178-1.03620763-2.31958178-2.31400424 0-1.27824152 1.03870525-2.31400424 2.3195818-2.31400424 1.28087654 0 2.31958178 1.03576272 2.31958178 2.31400424" mask="url(#p)"/></g><path fill="#0BE6FA" d="M414.463289 230.0849682c0 1.4059322-1.142174 2.5453602-2.551495 2.5453602s-2.55105-1.139428-2.55105-2.5453602 1.141729-2.5458051 2.55105-2.5458051 2.551495 1.1398729 2.551495 2.5458051M431.37135 285.035873c0 3.706589 3.011755 6.711102 6.726832 6.711102s6.726832-3.004513 6.726832-6.711102c0-3.705699-3.011755-6.710212-6.726832-6.710212s-6.726832 3.004513-6.726832 6.710212"/></g></g></svg>